<?xml version="1.0" encoding="UTF-8"?>
<svg xmlns="http://www.w3.org/2000/svg" xmlns:xlink="http://www.w3.org/1999/xlink" width="200pt" height="200pt" viewBox="0 0 200 200" version="1.1">
<g id="surface1">
<rect x="0" y="0" width="200" height="200" style="fill:rgb(0%,67.45098%,100%);fill-opacity:1;stroke:none;"/>
<path style=" stroke:none;fill-rule:nonzero;fill:rgb(100%,100%,100%);fill-opacity:1;" d="M 62.613281 86.207031 L 65.554688 86.207031 L 65.554688 99.933594 L 62.613281 99.933594 L 62.613281 94.03125 L 57.191406 94.03125 L 57.191406 99.933594 L 54.265625 99.933594 L 54.265625 86.207031 L 57.191406 86.207031 L 57.191406 91.6875 L 62.613281 91.6875 Z M 71.742188 99.933594 L 68.902344 99.933594 L 68.902344 89.105469 L 71.742188 89.105469 Z M 71.890625 85.699219 C 71.890625 86.148438 71.738281 86.527344 71.425781 86.839844 C 71.117188 87.148438 70.746094 87.304688 70.316406 87.304688 C 69.863281 87.304688 69.484375 87.148438 69.175781 86.839844 C 68.863281 86.527344 68.707031 86.148438 68.707031 85.699219 C 68.707031 85.269531 68.863281 84.902344 69.175781 84.601562 C 69.484375 84.300781 69.863281 84.152344 70.316406 84.152344 C 70.746094 84.152344 71.117188 84.300781 71.425781 84.601562 C 71.738281 84.902344 71.890625 85.269531 71.890625 85.699219 Z M 80.960938 100.15625 C 80.421875 100.15625 79.945312 100.078125 79.535156 99.917969 C 79.132812 99.746094 78.792969 99.558594 78.511719 99.347656 C 78.183594 99.105469 77.902344 98.832031 77.671875 98.519531 L 77.671875 102.515625 L 74.851562 102.515625 L 74.851562 89.105469 L 77.042969 89.105469 L 77.582031 90.53125 C 77.792969 90.222656 78.058594 89.941406 78.378906 89.691406 C 78.660156 89.480469 79.007812 89.292969 79.429688 89.121094 C 79.851562 88.941406 80.359375 88.851562 80.960938 88.851562 C 81.792969 88.851562 82.492188 89 83.0625 89.300781 C 83.644531 89.601562 84.113281 90.007812 84.472656 90.519531 C 84.824219 91.019531 85.078125 91.609375 85.238281 92.289062 C 85.398438 92.96875 85.480469 93.691406 85.480469 94.453125 C 85.480469 95.203125 85.398438 95.921875 85.238281 96.613281 C 85.078125 97.316406 84.824219 97.925781 84.472656 98.445312 C 84.113281 98.976562 83.644531 99.398438 83.0625 99.707031 C 82.492188 100.007812 81.792969 100.15625 80.960938 100.15625 Z M 80.089844 91.058594 C 79.410156 91.058594 78.839844 91.332031 78.378906 91.882812 C 77.90625 92.425781 77.671875 93.28125 77.671875 94.453125 C 77.671875 95.59375 77.90625 96.46875 78.378906 97.078125 C 78.839844 97.679688 79.410156 97.980469 80.089844 97.980469 C 80.421875 97.980469 80.734375 97.902344 81.035156 97.742188 C 81.328125 97.589844 81.582031 97.371094 81.800781 97.078125 C 82.011719 96.777344 82.1875 96.410156 82.328125 95.96875 C 82.457031 95.527344 82.523438 95.023438 82.523438 94.453125 C 82.523438 93.871094 82.457031 93.367188 82.328125 92.933594 C 82.1875 92.515625 82.011719 92.164062 81.800781 91.882812 C 81.582031 91.605469 81.328125 91.394531 81.035156 91.253906 C 80.734375 91.125 80.421875 91.058594 80.089844 91.058594 Z M 92.597656 88.851562 C 93.15625 88.851562 93.765625 88.9375 94.414062 89.105469 C 95.074219 89.277344 95.695312 89.570312 96.277344 89.992188 C 96.847656 90.414062 97.328125 90.988281 97.71875 91.71875 C 98.097656 92.441406 98.289062 93.371094 98.289062 94.511719 C 98.289062 95.644531 98.097656 96.574219 97.71875 97.304688 C 97.328125 98.035156 96.847656 98.609375 96.277344 99.03125 C 95.695312 99.453125 95.074219 99.746094 94.414062 99.917969 C 93.765625 100.078125 93.15625 100.15625 92.597656 100.15625 C 92.035156 100.15625 91.425781 100.078125 90.765625 99.917969 C 90.105469 99.746094 89.488281 99.453125 88.917969 99.03125 C 88.359375 98.609375 87.886719 98.035156 87.507812 97.304688 C 87.128906 96.574219 86.9375 95.644531 86.9375 94.511719 C 86.9375 93.371094 87.128906 92.441406 87.507812 91.71875 C 87.886719 90.988281 88.359375 90.414062 88.917969 89.992188 C 89.488281 89.570312 90.105469 89.277344 90.765625 89.105469 C 91.425781 88.9375 92.035156 88.851562 92.597656 88.851562 Z M 92.597656 98.054688 C 93.378906 98.054688 94.035156 97.75 94.566406 97.140625 C 95.085938 96.519531 95.34375 95.644531 95.34375 94.511719 C 95.34375 93.371094 95.085938 92.496094 94.566406 91.882812 C 94.035156 91.285156 93.378906 90.984375 92.597656 90.984375 C 91.835938 90.984375 91.195312 91.285156 90.675781 91.882812 C 90.15625 92.496094 89.894531 93.371094 89.894531 94.511719 C 89.894531 95.074219 89.964844 95.574219 90.105469 96.011719 C 90.246094 96.453125 90.433594 96.824219 90.675781 97.125 C 90.914062 97.425781 91.199219 97.65625 91.53125 97.816406 C 91.863281 97.976562 92.21875 98.054688 92.597656 98.054688 Z M 105.449219 88.851562 C 105.890625 88.851562 106.277344 88.882812 106.605469 88.941406 C 106.945312 88.992188 107.238281 89.050781 107.476562 89.121094 C 107.738281 89.210938 107.984375 89.308594 108.214844 89.40625 L 108.214844 91.402344 C 107.664062 91.234375 107.070312 91.117188 106.441406 91.058594 C 105.800781 91.007812 105.207031 91.082031 104.65625 91.285156 C 104.113281 91.484375 103.660156 91.839844 103.289062 92.351562 C 102.929688 92.851562 102.746094 93.570312 102.746094 94.511719 C 102.746094 95.492188 102.929688 96.238281 103.289062 96.75 C 103.660156 97.257812 104.113281 97.601562 104.65625 97.769531 C 105.207031 97.949219 105.800781 97.996094 106.441406 97.90625 C 107.070312 97.816406 107.664062 97.664062 108.214844 97.453125 L 108.214844 99.527344 C 108.003906 99.65625 107.757812 99.761719 107.476562 99.84375 C 107.238281 99.933594 106.945312 100.007812 106.605469 100.066406 C 106.257812 100.128906 105.867188 100.15625 105.433594 100.15625 C 104.886719 100.15625 104.285156 100.085938 103.632812 99.949219 C 102.972656 99.808594 102.355469 99.535156 101.785156 99.136719 C 101.214844 98.726562 100.746094 98.15625 100.375 97.425781 C 99.996094 96.683594 99.804688 95.714844 99.804688 94.511719 C 99.804688 93.320312 99.996094 92.355469 100.375 91.613281 C 100.746094 90.863281 101.214844 90.289062 101.785156 89.886719 C 102.355469 89.476562 102.972656 89.203125 103.632812 89.0625 C 104.285156 88.921875 104.890625 88.851562 105.449219 88.851562 Z M 114.308594 88.851562 C 114.769531 88.851562 115.265625 88.925781 115.796875 89.078125 C 116.328125 89.226562 116.828125 89.46875 117.296875 89.796875 C 117.757812 90.117188 118.132812 90.539062 118.421875 91.058594 C 118.722656 91.578125 118.863281 92.210938 118.84375 92.949219 L 118.84375 99.933594 L 116.785156 99.933594 C 116.785156 99.933594 116.765625 99.847656 116.726562 99.675781 C 116.6875 99.507812 116.640625 99.316406 116.589844 99.105469 C 116.542969 98.894531 116.496094 98.710938 116.457031 98.550781 C 116.40625 98.390625 116.382812 98.320312 116.382812 98.339844 C 116.191406 98.691406 115.9375 98.996094 115.617188 99.257812 C 115.335938 99.496094 114.976562 99.707031 114.535156 99.886719 C 114.085938 100.066406 113.539062 100.15625 112.898438 100.15625 C 112.449219 100.15625 112.007812 100.09375 111.578125 99.960938 C 111.136719 99.832031 110.746094 99.636719 110.40625 99.375 C 110.066406 99.117188 109.785156 98.792969 109.566406 98.402344 C 109.34375 98.011719 109.230469 97.554688 109.21875 97.035156 C 109.1875 96.484375 109.265625 95.992188 109.445312 95.5625 C 109.613281 95.144531 109.863281 94.777344 110.195312 94.46875 C 110.527344 94.15625 110.921875 93.90625 111.382812 93.714844 C 111.839844 93.527344 112.347656 93.394531 112.898438 93.324219 C 113.417969 93.253906 113.984375 93.222656 114.59375 93.222656 C 115.214844 93.222656 115.769531 93.234375 116.261719 93.265625 L 116.261719 92.933594 C 116.261719 92.335938 116.125 91.878906 115.855469 91.570312 C 115.59375 91.269531 115.265625 91.074219 114.863281 90.984375 C 114.464844 90.894531 114.023438 90.882812 113.542969 90.953125 C 113.074219 91.023438 112.617188 91.125 112.175781 91.253906 C 111.746094 91.394531 111.367188 91.535156 111.035156 91.675781 C 110.707031 91.824219 110.5 91.933594 110.421875 92.003906 L 110.421875 89.886719 C 110.429688 89.867188 110.554688 89.808594 110.796875 89.707031 C 111.035156 89.597656 111.335938 89.480469 111.695312 89.363281 C 112.066406 89.230469 112.476562 89.117188 112.929688 89.015625 C 113.386719 88.90625 113.847656 88.851562 114.308594 88.851562 Z M 115.644531 97.199219 C 115.886719 96.890625 116.046875 96.542969 116.125 96.164062 C 116.207031 95.792969 116.246094 95.398438 116.246094 94.976562 L 115.015625 94.976562 C 114.695312 94.976562 114.355469 94.996094 113.992188 95.039062 C 113.625 95.078125 113.289062 95.164062 112.988281 95.292969 C 112.675781 95.414062 112.417969 95.597656 112.207031 95.847656 C 111.996094 96.089844 111.890625 96.417969 111.890625 96.839844 C 111.890625 97.300781 112.0625 97.636719 112.402344 97.84375 C 112.742188 98.054688 113.167969 98.160156 113.679688 98.160156 C 114.109375 98.160156 114.488281 98.074219 114.820312 97.90625 C 115.148438 97.726562 115.425781 97.488281 115.644531 97.199219 Z M 133.875 88.851562 C 134.632812 88.851562 135.238281 88.988281 135.691406 89.257812 C 136.152344 89.515625 136.5 89.867188 136.742188 90.308594 C 136.972656 90.738281 137.128906 91.234375 137.207031 91.792969 C 137.289062 92.355469 137.328125 92.933594 137.328125 93.535156 L 137.328125 99.933594 L 134.503906 99.933594 L 134.503906 99.917969 L 134.488281 93.460938 C 134.488281 93.109375 134.46875 92.785156 134.429688 92.484375 C 134.378906 92.195312 134.300781 91.945312 134.1875 91.734375 C 134.070312 91.523438 133.902344 91.359375 133.695312 91.238281 C 133.484375 91.117188 133.214844 91.058594 132.882812 91.058594 C 132.460938 91.058594 132.113281 91.160156 131.832031 91.359375 C 131.550781 91.550781 131.335938 91.800781 131.1875 92.109375 C 131.035156 92.410156 130.925781 92.734375 130.855469 93.085938 C 130.796875 93.4375 130.765625 93.761719 130.765625 94.0625 L 130.765625 99.933594 L 127.988281 99.933594 L 127.988281 99.917969 L 127.972656 99.917969 L 127.972656 93.460938 C 127.972656 93.109375 127.949219 92.785156 127.898438 92.484375 C 127.847656 92.195312 127.757812 91.9375 127.628906 91.71875 C 127.507812 91.507812 127.332031 91.34375 127.101562 91.222656 C 126.882812 91.105469 126.597656 91.042969 126.246094 91.042969 C 125.855469 91.042969 125.535156 91.136719 125.285156 91.328125 C 125.023438 91.527344 124.820312 91.777344 124.667969 92.078125 C 124.519531 92.378906 124.410156 92.710938 124.339844 93.070312 C 124.277344 93.429688 124.25 93.761719 124.25 94.0625 L 124.25 99.933594 L 121.425781 99.933594 L 121.425781 89.105469 L 123.558594 89.105469 L 124.023438 90.773438 C 124.023438 90.773438 124.085938 90.671875 124.203125 90.472656 C 124.335938 90.273438 124.523438 90.058594 124.773438 89.828125 C 125.023438 89.585938 125.34375 89.367188 125.734375 89.167969 C 126.117188 88.957031 126.570312 88.851562 127.101562 88.851562 C 127.804688 88.851562 128.375 88.953125 128.8125 89.152344 C 129.246094 89.34375 129.585938 89.558594 129.835938 89.796875 C 130.136719 90.078125 130.355469 90.394531 130.496094 90.742188 C 130.527344 90.703125 130.601562 90.582031 130.71875 90.382812 C 130.851562 90.191406 131.046875 89.984375 131.304688 89.753906 C 131.578125 89.523438 131.921875 89.3125 132.34375 89.121094 C 132.761719 88.941406 133.273438 88.851562 133.875 88.851562 Z M 146.367188 100.15625 C 145.816406 100.15625 145.339844 100.078125 144.941406 99.917969 C 144.53125 99.746094 144.183594 99.558594 143.902344 99.347656 C 143.582031 99.105469 143.304688 98.832031 143.0625 98.519531 L 143.0625 102.515625 L 140.238281 102.515625 L 140.238281 89.105469 L 142.433594 89.105469 L 142.972656 90.53125 C 143.183594 90.222656 143.453125 89.941406 143.785156 89.691406 C 144.0625 89.480469 144.414062 89.292969 144.835938 89.121094 C 145.253906 88.941406 145.765625 88.851562 146.367188 88.851562 C 147.1875 88.851562 147.886719 89 148.46875 89.300781 C 149.039062 89.601562 149.503906 90.007812 149.863281 90.519531 C 150.226562 91.019531 150.484375 91.609375 150.644531 92.289062 C 150.804688 92.96875 150.886719 93.691406 150.886719 94.453125 C 150.886719 95.203125 150.804688 95.921875 150.644531 96.613281 C 150.484375 97.316406 150.226562 97.925781 149.863281 98.445312 C 149.503906 98.976562 149.039062 99.398438 148.46875 99.707031 C 147.886719 100.007812 147.1875 100.15625 146.367188 100.15625 Z M 145.480469 91.058594 C 144.808594 91.058594 144.238281 91.332031 143.769531 91.882812 C 143.296875 92.425781 143.0625 93.28125 143.0625 94.453125 C 143.0625 95.59375 143.296875 96.46875 143.769531 97.078125 C 144.238281 97.679688 144.808594 97.980469 145.480469 97.980469 C 145.820312 97.980469 146.136719 97.902344 146.425781 97.742188 C 146.714844 97.589844 146.972656 97.371094 147.191406 97.078125 C 147.414062 96.777344 147.585938 96.410156 147.71875 95.96875 C 147.847656 95.527344 147.914062 95.023438 147.914062 94.453125 C 147.914062 93.871094 147.847656 93.367188 147.71875 92.933594 C 147.585938 92.515625 147.414062 92.164062 147.191406 91.882812 C 146.972656 91.605469 146.714844 91.394531 146.425781 91.253906 C 146.136719 91.125 145.820312 91.058594 145.480469 91.058594 Z M 156.921875 100.15625 C 156.261719 100.15625 155.691406 100.078125 155.210938 99.917969 C 154.71875 99.746094 154.3125 99.46875 153.992188 99.078125 C 153.671875 98.695312 153.433594 98.199219 153.273438 97.589844 C 153.113281 96.980469 153.03125 96.234375 153.03125 95.351562 L 153.03125 89.105469 L 155.839844 89.105469 L 155.839844 94.976562 C 155.839844 96.007812 155.980469 96.765625 156.261719 97.246094 C 156.542969 97.734375 157.027344 97.980469 157.71875 97.980469 C 158.539062 97.980469 159.148438 97.640625 159.550781 96.960938 C 159.949219 96.277344 160.148438 95.378906 160.148438 94.257812 L 160.148438 89.105469 L 162.972656 89.105469 L 162.972656 99.933594 L 160.824219 99.933594 L 160.253906 98.445312 C 160.253906 98.445312 160.183594 98.53125 160.046875 98.703125 C 159.90625 98.882812 159.695312 99.078125 159.414062 99.285156 C 159.132812 99.507812 158.789062 99.707031 158.378906 99.886719 C 157.96875 100.066406 157.484375 100.15625 156.921875 100.15625 Z M 173.078125 90.144531 L 172.132812 92.257812 C 171.660156 91.898438 171.144531 91.625 170.585938 91.433594 C 170.023438 91.253906 169.554688 91.164062 169.175781 91.164062 C 168.804688 91.164062 168.511719 91.230469 168.304688 91.359375 C 168.09375 91.480469 167.988281 91.703125 167.988281 92.035156 C 167.988281 92.316406 168.125 92.535156 168.394531 92.695312 C 168.664062 92.867188 168.992188 93.027344 169.382812 93.175781 C 169.773438 93.324219 170.199219 93.480469 170.660156 93.640625 C 171.121094 93.800781 171.550781 94.011719 171.953125 94.273438 C 172.34375 94.53125 172.667969 94.855469 172.929688 95.246094 C 173.199219 95.648438 173.332031 96.160156 173.332031 96.777344 C 173.332031 97.371094 173.222656 97.875 173.003906 98.296875 C 172.792969 98.726562 172.507812 99.082031 172.148438 99.363281 C 171.785156 99.632812 171.375 99.832031 170.914062 99.960938 C 170.457031 100.09375 169.980469 100.15625 169.488281 100.15625 C 169.140625 100.15625 168.765625 100.121094 168.363281 100.050781 C 167.964844 99.972656 167.566406 99.851562 167.175781 99.691406 C 166.796875 99.53125 166.425781 99.335938 166.066406 99.105469 C 165.714844 98.875 165.40625 98.609375 165.136719 98.3125 L 166.066406 96.253906 C 166.554688 96.785156 167.082031 97.191406 167.644531 97.46875 C 168.203125 97.742188 168.714844 97.875 169.175781 97.875 C 169.566406 97.875 169.941406 97.804688 170.300781 97.664062 C 170.671875 97.523438 170.859375 97.285156 170.871094 96.945312 C 170.890625 96.625 170.769531 96.363281 170.511719 96.164062 C 170.25 95.953125 169.925781 95.773438 169.535156 95.625 C 169.132812 95.472656 168.703125 95.3125 168.242188 95.144531 C 167.78125 94.984375 167.355469 94.777344 166.96875 94.527344 C 166.578125 94.277344 166.246094 93.960938 165.976562 93.582031 C 165.707031 93.199219 165.582031 92.710938 165.601562 92.109375 C 165.601562 91.539062 165.699219 91.042969 165.902344 90.625 C 166.101562 90.210938 166.371094 89.878906 166.710938 89.617188 C 167.050781 89.355469 167.441406 89.167969 167.882812 89.046875 C 168.324219 88.917969 168.777344 88.851562 169.25 88.851562 C 169.53125 88.851562 169.839844 88.882812 170.179688 88.941406 C 170.519531 88.992188 170.859375 89.078125 171.203125 89.195312 C 171.542969 89.308594 171.875 89.4375 172.207031 89.585938 C 172.539062 89.746094 172.828125 89.933594 173.078125 90.144531 Z M 173.078125 90.144531 "/>
<path style=" stroke:none;fill-rule:nonzero;fill:rgb(0.392157%,0%,20%);fill-opacity:1;" d="M 44.539062 89.066406 C 42.367188 89.453125 41.597656 86.316406 41.589844 85.753906 C 41.578125 85.195312 41.335938 83.769531 41.335938 83.769531 L 40.78125 84.027344 C 40.78125 84.027344 39.890625 81.023438 35.75 81.097656 C 31.613281 81.167969 28.308594 86.144531 28.425781 89.222656 C 28.539062 92.300781 30.492188 95.285156 30.515625 96.683594 L 28.019531 94.457031 C 28.019531 94.457031 26.636719 97.375 26.667969 99.054688 C 26.695312 100.734375 27.382812 102.621094 27.632812 102.707031 C 28.019531 101.582031 28.90625 101.402344 29.734375 101.261719 C 28.386719 102.40625 26.765625 108.199219 26.820312 111.40625 C 26.875 114.609375 28.632812 118.976562 32.800781 118.902344 C 36.96875 118.832031 37.910156 115.804688 37.886719 114.417969 C 37.863281 113.027344 36.804688 111.699219 35.414062 111.722656 C 34.023438 111.746094 33.753906 112.828125 33.753906 112.828125 C 33.753906 112.828125 34.390625 112.507812 35.117188 112.496094 C 35.84375 112.480469 36.503906 113.632812 36.511719 114.097656 C 36.519531 114.566406 36.964844 116.921875 33.328125 116.984375 C 29.6875 117.050781 29.734375 113.128906 29.734375 113.128906 C 29.574219 103.917969 37.890625 107.46875 37.679688 95.375 C 37.59375 90.335938 33.398438 88.855469 33.367188 87.070312 C 33.355469 86.46875 33.589844 85.675781 34.152344 85.667969 C 34.710938 85.65625 35.050781 87.238281 35.050781 87.238281 C 35.050781 87.238281 36.007812 87.285156 36.261719 87.28125 C 37.828125 87.253906 42 89.214844 43.625 91.394531 L 45.238281 89.800781 C 45.238281 89.800781 46.402344 88.730469 44.539062 89.066406 Z M 39.929688 86.019531 C 39.644531 86.019531 39.414062 85.789062 39.414062 85.503906 C 39.414062 85.21875 39.644531 84.988281 39.929688 84.988281 C 40.214844 84.988281 40.449219 85.21875 40.449219 85.503906 C 40.449219 85.789062 40.214844 86.019531 39.929688 86.019531 Z M 39.929688 86.019531 "/>
<path style=" stroke:none;fill-rule:nonzero;fill:rgb(100%,100%,100%);fill-opacity:1;" d="M 54.265625 111.5625 C 54.265625 111.132812 54.347656 110.742188 54.511719 110.398438 C 54.679688 110.050781 54.9375 109.773438 55.285156 109.558594 C 55.628906 109.347656 56.042969 109.242188 56.519531 109.242188 C 56.761719 109.242188 57.003906 109.277344 57.25 109.351562 C 57.496094 109.421875 57.691406 109.492188 57.839844 109.5625 L 58.0625 109.679688 C 58.074219 109.679688 58.09375 109.667969 58.121094 109.648438 C 58.148438 109.628906 58.171875 109.621094 58.183594 109.621094 C 58.203125 109.621094 58.222656 109.625 58.246094 109.640625 C 58.265625 109.65625 58.273438 109.683594 58.273438 109.714844 C 58.28125 109.828125 58.289062 109.953125 58.304688 110.078125 C 58.316406 110.210938 58.328125 110.316406 58.34375 110.398438 C 58.351562 110.480469 58.359375 110.53125 58.359375 110.546875 C 58.359375 110.617188 58.335938 110.652344 58.285156 110.652344 C 58.25 110.652344 58.214844 110.625 58.183594 110.570312 C 57.800781 109.847656 57.242188 109.488281 56.519531 109.488281 C 56.023438 109.488281 55.613281 109.648438 55.296875 109.964844 C 54.980469 110.28125 54.820312 110.695312 54.820312 111.207031 C 54.820312 111.488281 54.859375 111.753906 54.933594 112 C 55.003906 112.246094 55.117188 112.46875 55.269531 112.671875 C 55.414062 112.878906 55.621094 113.042969 55.878906 113.160156 C 56.144531 113.28125 56.449219 113.339844 56.796875 113.339844 C 57.371094 113.339844 57.851562 113.042969 58.238281 112.449219 C 58.253906 112.417969 58.285156 112.40625 58.328125 112.40625 C 58.363281 112.40625 58.378906 112.433594 58.378906 112.484375 C 58.378906 112.53125 58.375 112.589844 58.363281 112.664062 C 58.347656 112.738281 58.332031 112.820312 58.3125 112.90625 C 58.292969 112.996094 58.28125 113.050781 58.273438 113.074219 C 58.265625 113.113281 58.234375 113.148438 58.179688 113.179688 C 57.964844 113.28125 57.796875 113.355469 57.675781 113.410156 C 57.554688 113.460938 57.402344 113.507812 57.214844 113.546875 C 57.027344 113.589844 56.839844 113.613281 56.644531 113.613281 C 56.300781 113.613281 55.988281 113.570312 55.710938 113.488281 C 55.433594 113.402344 55.207031 113.296875 55.03125 113.160156 C 54.851562 113.027344 54.703125 112.867188 54.582031 112.683594 C 54.464844 112.507812 54.378906 112.324219 54.332031 112.136719 C 54.285156 111.953125 54.265625 111.761719 54.265625 111.5625 Z M 61.902344 109.351562 C 61.902344 109.285156 61.957031 109.253906 62.070312 109.253906 L 63.0625 109.253906 C 63.152344 109.253906 63.257812 109.25 63.375 109.246094 C 63.496094 109.238281 63.589844 109.238281 63.65625 109.238281 C 64.015625 109.238281 64.320312 109.328125 64.570312 109.507812 C 64.828125 109.6875 64.953125 109.929688 64.953125 110.234375 C 64.953125 110.441406 64.914062 110.617188 64.839844 110.769531 C 64.761719 110.921875 64.675781 111.03125 64.585938 111.097656 C 64.492188 111.167969 64.402344 111.226562 64.324219 111.273438 C 64.25 111.324219 64.210938 111.359375 64.210938 111.375 C 64.210938 111.421875 64.378906 111.675781 64.710938 112.144531 C 65.042969 112.609375 65.273438 112.910156 65.394531 113.042969 C 65.546875 113.226562 65.726562 113.320312 65.941406 113.320312 C 65.996094 113.320312 66.027344 113.34375 66.027344 113.390625 C 66.027344 113.449219 66 113.492188 65.953125 113.511719 C 65.90625 113.53125 65.78125 113.539062 65.582031 113.539062 C 65.398438 113.539062 65.230469 113.496094 65.074219 113.402344 C 64.875 113.289062 64.539062 112.84375 64.066406 112.070312 C 64.039062 112.027344 64.019531 111.996094 64.007812 111.976562 C 63.816406 111.667969 63.671875 111.511719 63.566406 111.511719 L 63.078125 111.511719 C 63.03125 111.511719 63.003906 111.53125 62.992188 111.570312 C 62.984375 111.609375 62.976562 111.730469 62.976562 111.933594 C 62.976562 112.121094 62.976562 112.28125 62.976562 112.40625 C 62.976562 112.527344 62.976562 112.605469 62.980469 112.640625 C 62.984375 112.671875 62.984375 112.699219 62.984375 112.722656 C 62.984375 112.742188 62.984375 112.761719 62.984375 112.773438 C 62.984375 112.9375 63.023438 113.0625 63.097656 113.148438 C 63.171875 113.238281 63.257812 113.292969 63.351562 113.304688 C 63.445312 113.320312 63.527344 113.335938 63.601562 113.351562 C 63.679688 113.371094 63.714844 113.398438 63.714844 113.4375 C 63.714844 113.503906 63.679688 113.535156 63.609375 113.535156 C 63.605469 113.535156 63.46875 113.527344 63.199219 113.515625 C 62.929688 113.5 62.78125 113.492188 62.753906 113.492188 C 62.640625 113.492188 62.507812 113.496094 62.347656 113.507812 C 62.1875 113.515625 62.105469 113.519531 62.101562 113.519531 C 62.019531 113.519531 61.976562 113.484375 61.976562 113.421875 C 61.976562 113.378906 62.003906 113.347656 62.054688 113.328125 C 62.105469 113.308594 62.164062 113.296875 62.226562 113.289062 C 62.289062 113.285156 62.347656 113.242188 62.398438 113.160156 C 62.453125 113.082031 62.480469 112.96875 62.480469 112.820312 C 62.480469 112.714844 62.480469 112.4375 62.480469 111.988281 C 62.480469 111.535156 62.484375 111.1875 62.484375 110.945312 C 62.484375 110.699219 62.480469 110.472656 62.480469 110.269531 C 62.480469 110.066406 62.480469 109.957031 62.480469 109.9375 C 62.480469 109.792969 62.449219 109.679688 62.390625 109.601562 C 62.332031 109.527344 62.265625 109.480469 62.191406 109.472656 C 62.117188 109.460938 62.050781 109.449219 61.992188 109.433594 C 61.929688 109.417969 61.902344 109.390625 61.902344 109.351562 Z M 62.976562 110.132812 L 62.976562 110.304688 C 62.976562 110.710938 62.980469 110.964844 62.984375 111.0625 C 62.988281 111.15625 63 111.214844 63.023438 111.230469 C 63.082031 111.269531 63.167969 111.285156 63.28125 111.285156 L 63.511719 111.285156 C 63.851562 111.285156 64.089844 111.207031 64.234375 111.050781 C 64.378906 110.898438 64.453125 110.699219 64.453125 110.457031 C 64.453125 110.210938 64.355469 109.988281 64.167969 109.785156 C 63.976562 109.582031 63.683594 109.480469 63.292969 109.480469 C 63.148438 109.480469 63.058594 109.519531 63.023438 109.597656 C 62.992188 109.675781 62.976562 109.855469 62.976562 110.132812 Z M 69.152344 109.332031 C 69.152344 109.277344 69.207031 109.25 69.316406 109.25 C 69.332031 109.25 69.359375 109.25 69.394531 109.253906 C 69.429688 109.257812 69.457031 109.261719 69.476562 109.261719 C 69.488281 109.261719 69.675781 109.265625 70.039062 109.273438 C 70.398438 109.285156 70.699219 109.292969 70.933594 109.292969 C 71.015625 109.292969 71.21875 109.289062 71.550781 109.28125 C 71.875 109.269531 72.066406 109.265625 72.125 109.265625 C 72.195312 109.265625 72.234375 109.3125 72.234375 109.402344 C 72.234375 109.429688 72.222656 109.507812 72.199219 109.640625 C 72.175781 109.769531 72.160156 109.894531 72.160156 110.011719 C 72.160156 110.046875 72.152344 110.078125 72.132812 110.105469 C 72.113281 110.128906 72.089844 110.144531 72.066406 110.144531 C 72.007812 110.144531 71.980469 110.101562 71.980469 110.015625 C 71.980469 109.910156 71.945312 109.8125 71.875 109.726562 C 71.808594 109.636719 71.726562 109.59375 71.625 109.589844 C 71.269531 109.5625 70.996094 109.546875 70.804688 109.546875 L 70.652344 109.546875 C 70.445312 109.546875 70.324219 109.5625 70.289062 109.589844 C 70.257812 109.621094 70.234375 109.726562 70.226562 109.910156 C 70.210938 110.195312 70.207031 110.527344 70.207031 110.902344 C 70.207031 111.101562 70.242188 111.203125 70.316406 111.207031 L 70.902344 111.207031 C 71.140625 111.207031 71.300781 111.199219 71.378906 111.183594 C 71.457031 111.167969 71.53125 111.136719 71.589844 111.09375 C 71.667969 111.042969 71.714844 110.96875 71.726562 110.875 C 71.738281 110.804688 71.765625 110.773438 71.8125 110.773438 C 71.847656 110.773438 71.867188 110.777344 71.875 110.789062 C 71.886719 110.804688 71.890625 110.832031 71.890625 110.871094 C 71.890625 110.894531 71.882812 110.984375 71.863281 111.140625 C 71.851562 111.296875 71.84375 111.414062 71.84375 111.496094 C 71.84375 111.570312 71.84375 111.640625 71.851562 111.707031 C 71.855469 111.777344 71.859375 111.824219 71.859375 111.855469 C 71.859375 111.957031 71.84375 112.003906 71.816406 112.003906 C 71.757812 112.003906 71.714844 111.957031 71.683594 111.859375 C 71.632812 111.695312 71.582031 111.601562 71.535156 111.570312 C 71.453125 111.515625 71.265625 111.488281 70.964844 111.488281 C 70.847656 111.488281 70.75 111.488281 70.675781 111.488281 C 70.605469 111.488281 70.558594 111.484375 70.539062 111.480469 C 70.515625 111.480469 70.496094 111.480469 70.480469 111.480469 C 70.46875 111.480469 70.453125 111.480469 70.445312 111.480469 C 70.277344 111.480469 70.195312 111.519531 70.195312 111.59375 C 70.195312 111.707031 70.195312 111.851562 70.191406 112.027344 C 70.191406 112.199219 70.1875 112.339844 70.1875 112.453125 L 70.1875 112.691406 C 70.1875 112.976562 70.234375 113.132812 70.328125 113.160156 C 70.429688 113.191406 70.511719 113.207031 70.582031 113.207031 C 70.882812 113.207031 71.140625 113.195312 71.367188 113.164062 C 71.59375 113.136719 71.761719 113.101562 71.875 113.058594 C 71.988281 113.019531 72.082031 112.976562 72.15625 112.921875 C 72.234375 112.875 72.28125 112.828125 72.300781 112.789062 C 72.324219 112.746094 72.347656 112.710938 72.371094 112.683594 C 72.390625 112.65625 72.414062 112.644531 72.4375 112.644531 C 72.484375 112.644531 72.511719 112.675781 72.511719 112.746094 C 72.511719 112.914062 72.421875 113.085938 72.25 113.257812 C 72.082031 113.433594 71.933594 113.523438 71.804688 113.523438 C 71.519531 113.523438 71.199219 113.511719 70.839844 113.492188 C 70.480469 113.472656 70.253906 113.464844 70.167969 113.464844 C 70.058594 113.464844 69.917969 113.472656 69.75 113.488281 C 69.585938 113.507812 69.457031 113.519531 69.359375 113.519531 C 69.277344 113.519531 69.234375 113.5 69.234375 113.460938 C 69.234375 113.421875 69.234375 113.398438 69.234375 113.386719 C 69.234375 113.375 69.242188 113.367188 69.253906 113.355469 C 69.265625 113.347656 69.277344 113.34375 69.292969 113.339844 C 69.304688 113.339844 69.332031 113.332031 69.367188 113.320312 C 69.40625 113.308594 69.445312 113.292969 69.492188 113.273438 C 69.585938 113.222656 69.648438 113.128906 69.679688 112.992188 C 69.707031 112.851562 69.722656 112.5625 69.722656 112.121094 L 69.722656 111.378906 C 69.722656 111.273438 69.726562 111.105469 69.734375 110.878906 C 69.738281 110.65625 69.742188 110.480469 69.742188 110.351562 C 69.742188 110.242188 69.738281 110.0625 69.730469 109.808594 C 69.722656 109.695312 69.675781 109.605469 69.582031 109.539062 C 69.484375 109.476562 69.371094 109.445312 69.246094 109.441406 C 69.183594 109.441406 69.152344 109.402344 69.152344 109.332031 Z M 75.726562 113.445312 C 75.726562 113.390625 75.753906 113.351562 75.8125 113.332031 C 75.9375 113.285156 76.050781 113.175781 76.144531 113.011719 C 76.242188 112.847656 76.480469 112.355469 76.855469 111.53125 C 77.246094 110.695312 77.585938 109.957031 77.886719 109.320312 C 77.914062 109.261719 77.9375 109.222656 77.957031 109.207031 C 77.980469 109.191406 78.015625 109.183594 78.0625 109.183594 C 78.097656 109.183594 78.121094 109.191406 78.136719 109.207031 C 78.148438 109.222656 78.171875 109.289062 78.210938 109.402344 C 78.234375 109.472656 78.253906 109.527344 78.273438 109.578125 C 78.292969 109.625 78.320312 109.703125 78.359375 109.808594 C 78.402344 109.914062 78.445312 110.027344 78.492188 110.144531 C 78.617188 110.453125 78.835938 110.972656 79.148438 111.699219 C 79.460938 112.421875 79.628906 112.8125 79.65625 112.871094 C 79.726562 113.007812 79.800781 113.113281 79.882812 113.183594 C 79.96875 113.25 80.039062 113.289062 80.101562 113.292969 C 80.164062 113.300781 80.214844 113.308594 80.257812 113.324219 C 80.296875 113.335938 80.316406 113.367188 80.316406 113.417969 C 80.316406 113.476562 80.265625 113.507812 80.160156 113.507812 C 80.113281 113.507812 80.027344 113.5 79.902344 113.488281 C 79.777344 113.476562 79.683594 113.46875 79.625 113.46875 C 79.546875 113.46875 79.449219 113.472656 79.332031 113.480469 C 79.210938 113.488281 79.125 113.492188 79.066406 113.492188 C 78.945312 113.492188 78.867188 113.488281 78.832031 113.476562 C 78.800781 113.46875 78.78125 113.445312 78.78125 113.410156 C 78.78125 113.382812 78.796875 113.359375 78.828125 113.339844 C 78.863281 113.324219 78.898438 113.3125 78.929688 113.304688 C 78.96875 113.300781 79 113.28125 79.03125 113.25 C 79.0625 113.222656 79.078125 113.183594 79.078125 113.132812 C 79.078125 113.042969 79.03125 112.867188 78.929688 112.597656 C 78.832031 112.324219 78.75 112.125 78.679688 112 C 78.644531 111.933594 78.566406 111.898438 78.4375 111.898438 C 78.417969 111.898438 78.328125 111.898438 78.175781 111.902344 C 78.019531 111.910156 77.871094 111.910156 77.71875 111.910156 L 77.398438 111.910156 C 77.222656 111.910156 77.109375 111.921875 77.0625 111.941406 C 77.019531 111.960938 76.980469 112.007812 76.945312 112.082031 C 76.917969 112.132812 76.878906 112.214844 76.824219 112.328125 C 76.769531 112.441406 76.730469 112.519531 76.710938 112.566406 C 76.691406 112.609375 76.664062 112.664062 76.636719 112.730469 C 76.605469 112.804688 76.585938 112.859375 76.574219 112.902344 C 76.566406 112.941406 76.5625 112.980469 76.5625 113.011719 C 76.5625 113.105469 76.585938 113.171875 76.628906 113.222656 C 76.675781 113.265625 76.726562 113.292969 76.785156 113.296875 C 76.835938 113.304688 76.886719 113.316406 76.933594 113.332031 C 76.980469 113.347656 77.003906 113.378906 77.003906 113.417969 C 77.003906 113.445312 76.996094 113.464844 76.984375 113.476562 C 76.972656 113.492188 76.945312 113.496094 76.902344 113.496094 C 76.878906 113.496094 76.808594 113.496094 76.699219 113.496094 C 76.585938 113.496094 76.488281 113.492188 76.410156 113.492188 C 76.320312 113.492188 76.222656 113.496094 76.113281 113.507812 C 76.003906 113.515625 75.933594 113.519531 75.894531 113.519531 C 75.78125 113.519531 75.726562 113.496094 75.726562 113.445312 Z M 77.21875 111.480469 C 77.21875 111.53125 77.234375 111.5625 77.273438 111.574219 C 77.308594 111.585938 77.390625 111.59375 77.519531 111.59375 L 77.707031 111.59375 L 78.273438 111.589844 C 78.425781 111.589844 78.5 111.558594 78.5 111.496094 C 78.5 111.441406 78.40625 111.195312 78.210938 110.757812 C 78.015625 110.320312 77.894531 110.101562 77.84375 110.101562 C 77.804688 110.101562 77.691406 110.320312 77.503906 110.757812 C 77.3125 111.195312 77.21875 111.4375 77.21875 111.480469 Z M 83.53125 109.382812 C 83.53125 109.355469 83.546875 109.332031 83.574219 109.308594 C 83.601562 109.289062 83.636719 109.28125 83.679688 109.28125 C 83.707031 109.28125 83.746094 109.28125 83.800781 109.285156 C 83.855469 109.285156 83.894531 109.285156 83.910156 109.285156 C 83.96875 109.285156 84.023438 109.28125 84.074219 109.28125 C 84.128906 109.273438 84.167969 109.269531 84.199219 109.269531 C 84.234375 109.269531 84.277344 109.28125 84.328125 109.304688 C 84.371094 109.328125 84.398438 109.351562 84.40625 109.371094 C 84.417969 109.382812 84.4375 109.410156 84.476562 109.453125 C 84.511719 109.496094 84.554688 109.550781 84.617188 109.621094 C 84.675781 109.683594 84.730469 109.75 84.777344 109.816406 C 85.316406 110.519531 86.039062 111.367188 86.945312 112.359375 C 86.96875 112.382812 86.996094 112.414062 87.03125 112.453125 C 87.066406 112.488281 87.089844 112.515625 87.105469 112.53125 C 87.117188 112.550781 87.132812 112.566406 87.144531 112.582031 C 87.164062 112.597656 87.175781 112.609375 87.183594 112.617188 C 87.195312 112.625 87.207031 112.625 87.214844 112.625 C 87.253906 112.625 87.273438 112.503906 87.273438 112.257812 L 87.273438 111.558594 C 87.273438 111.292969 87.273438 111.066406 87.269531 110.886719 C 87.265625 110.703125 87.265625 110.570312 87.265625 110.492188 C 87.261719 110.410156 87.261719 110.359375 87.261719 110.339844 L 87.261719 110.296875 C 87.261719 110.164062 87.253906 110.046875 87.234375 109.953125 C 87.214844 109.855469 87.195312 109.78125 87.171875 109.730469 C 87.144531 109.679688 87.109375 109.636719 87.066406 109.597656 C 87.019531 109.5625 86.980469 109.542969 86.949219 109.53125 C 86.917969 109.523438 86.875 109.511719 86.816406 109.5 C 86.753906 109.488281 86.710938 109.476562 86.6875 109.472656 C 86.609375 109.445312 86.566406 109.410156 86.566406 109.367188 C 86.566406 109.308594 86.605469 109.28125 86.683594 109.28125 C 86.707031 109.28125 86.800781 109.28125 86.96875 109.285156 C 87.136719 109.285156 87.226562 109.285156 87.25 109.285156 C 87.34375 109.285156 87.449219 109.28125 87.566406 109.28125 C 87.683594 109.273438 87.753906 109.269531 87.785156 109.269531 C 87.851562 109.269531 87.898438 109.277344 87.925781 109.292969 C 87.949219 109.304688 87.960938 109.332031 87.960938 109.371094 C 87.960938 109.390625 87.953125 109.40625 87.929688 109.417969 C 87.910156 109.433594 87.886719 109.445312 87.859375 109.453125 C 87.835938 109.464844 87.8125 109.472656 87.789062 109.480469 L 87.753906 109.492188 C 87.625 109.5625 87.558594 109.785156 87.558594 110.164062 L 87.558594 110.394531 C 87.558594 110.695312 87.546875 111.214844 87.523438 111.957031 C 87.5 112.703125 87.492188 113.164062 87.492188 113.339844 L 87.492188 113.460938 C 87.492188 113.550781 87.464844 113.59375 87.410156 113.59375 C 87.371094 113.59375 87.339844 113.582031 87.3125 113.554688 C 85.996094 112.023438 85.210938 111.117188 84.953125 110.828125 C 84.695312 110.539062 84.554688 110.398438 84.527344 110.398438 C 84.488281 110.398438 84.46875 110.53125 84.46875 110.800781 C 84.46875 111.179688 84.460938 111.585938 84.445312 112.019531 C 84.429688 112.453125 84.421875 112.691406 84.421875 112.730469 C 84.421875 112.910156 84.453125 113.046875 84.515625 113.140625 C 84.574219 113.234375 84.640625 113.285156 84.714844 113.296875 C 84.785156 113.308594 84.851562 113.320312 84.914062 113.335938 C 84.972656 113.351562 85.003906 113.378906 85.003906 113.417969 C 85.003906 113.460938 84.996094 113.484375 84.980469 113.496094 C 84.96875 113.511719 84.945312 113.519531 84.910156 113.519531 C 84.882812 113.519531 84.820312 113.515625 84.722656 113.511719 C 84.625 113.507812 84.472656 113.507812 84.273438 113.507812 C 84.234375 113.507812 84.160156 113.507812 84.050781 113.511719 C 83.941406 113.515625 83.84375 113.519531 83.765625 113.519531 C 83.679688 113.519531 83.632812 113.484375 83.632812 113.421875 C 83.632812 113.386719 83.660156 113.363281 83.710938 113.351562 C 83.765625 113.34375 83.828125 113.3125 83.902344 113.257812 C 83.976562 113.207031 84.035156 113.113281 84.074219 112.96875 C 84.097656 112.878906 84.128906 112.507812 84.164062 111.859375 C 84.199219 111.214844 84.214844 110.769531 84.214844 110.519531 C 84.214844 110.179688 84.167969 109.925781 84.074219 109.753906 C 83.980469 109.589844 83.824219 109.492188 83.613281 109.472656 C 83.558594 109.464844 83.53125 109.433594 83.53125 109.382812 Z M 91.261719 109.328125 C 91.261719 109.289062 91.277344 109.269531 91.3125 109.261719 C 91.34375 109.257812 91.429688 109.253906 91.5625 109.253906 L 92.082031 109.253906 C 92.183594 109.253906 92.363281 109.25 92.632812 109.242188 C 92.894531 109.234375 93.097656 109.234375 93.242188 109.234375 C 93.515625 109.234375 93.789062 109.273438 94.0625 109.355469 C 94.339844 109.4375 94.589844 109.558594 94.820312 109.71875 C 95.050781 109.875 95.238281 110.078125 95.378906 110.328125 C 95.523438 110.582031 95.59375 110.863281 95.59375 111.171875 C 95.59375 111.449219 95.578125 111.691406 95.539062 111.894531 C 95.5 112.097656 95.4375 112.277344 95.347656 112.425781 C 95.261719 112.574219 95.175781 112.695312 95.089844 112.789062 C 95 112.882812 94.882812 112.992188 94.730469 113.121094 C 94.613281 113.210938 94.441406 113.300781 94.214844 113.386719 C 93.988281 113.46875 93.753906 113.511719 93.515625 113.511719 C 93.492188 113.511719 93.289062 113.507812 92.90625 113.496094 C 92.527344 113.484375 92.253906 113.480469 92.085938 113.480469 C 91.949219 113.480469 91.820312 113.484375 91.699219 113.496094 C 91.582031 113.507812 91.511719 113.511719 91.492188 113.511719 C 91.398438 113.511719 91.351562 113.484375 91.351562 113.433594 C 91.351562 113.402344 91.359375 113.378906 91.371094 113.367188 C 91.382812 113.351562 91.414062 113.339844 91.457031 113.328125 C 91.507812 113.316406 91.539062 113.304688 91.558594 113.296875 C 91.621094 113.269531 91.679688 113.21875 91.734375 113.140625 C 91.789062 113.0625 91.816406 112.984375 91.816406 112.910156 C 91.816406 112.6875 91.816406 112.402344 91.820312 112.058594 C 91.820312 111.714844 91.820312 111.460938 91.820312 111.296875 C 91.820312 111.152344 91.820312 110.929688 91.820312 110.628906 C 91.816406 110.324219 91.816406 110.042969 91.816406 109.785156 C 91.816406 109.71875 91.78125 109.648438 91.71875 109.578125 C 91.652344 109.507812 91.578125 109.472656 91.5 109.472656 C 91.445312 109.464844 91.402344 109.460938 91.378906 109.457031 C 91.351562 109.453125 91.324219 109.441406 91.300781 109.417969 C 91.273438 109.398438 91.261719 109.367188 91.261719 109.328125 Z M 92.3125 112.65625 C 92.3125 112.730469 92.3125 112.789062 92.316406 112.839844 C 92.320312 112.886719 92.328125 112.929688 92.34375 112.96875 C 92.355469 113.011719 92.367188 113.035156 92.371094 113.050781 C 92.378906 113.066406 92.40625 113.085938 92.445312 113.105469 C 92.484375 113.125 92.515625 113.140625 92.539062 113.144531 C 92.5625 113.148438 92.605469 113.164062 92.679688 113.183594 C 92.75 113.203125 92.808594 113.21875 92.855469 113.230469 C 92.996094 113.269531 93.140625 113.289062 93.289062 113.289062 L 93.410156 113.289062 C 93.679688 113.289062 93.910156 113.25 94.097656 113.175781 C 94.292969 113.097656 94.472656 112.976562 94.648438 112.808594 C 94.941406 112.527344 95.089844 112.070312 95.089844 111.441406 C 95.089844 111.121094 95.027344 110.835938 94.902344 110.578125 C 94.777344 110.320312 94.613281 110.113281 94.410156 109.960938 C 94.207031 109.808594 93.988281 109.6875 93.753906 109.605469 C 93.523438 109.527344 93.285156 109.488281 93.046875 109.488281 C 92.941406 109.488281 92.859375 109.488281 92.808594 109.488281 C 92.761719 109.488281 92.707031 109.492188 92.640625 109.5 C 92.574219 109.511719 92.53125 109.519531 92.507812 109.527344 C 92.484375 109.53125 92.457031 109.550781 92.425781 109.585938 C 92.394531 109.621094 92.378906 109.648438 92.371094 109.671875 C 92.367188 109.695312 92.359375 109.742188 92.347656 109.8125 C 92.339844 109.882812 92.332031 109.941406 92.332031 109.992188 C 92.332031 110.042969 92.332031 110.128906 92.332031 110.246094 C 92.332031 110.328125 92.332031 110.535156 92.324219 110.855469 C 92.324219 111.183594 92.320312 111.359375 92.320312 111.382812 C 92.320312 111.621094 92.320312 111.878906 92.316406 112.160156 C 92.3125 112.4375 92.3125 112.601562 92.3125 112.65625 Z M 99.09375 111.472656 C 99.09375 110.808594 99.292969 110.261719 99.695312 109.835938 C 100.097656 109.410156 100.664062 109.195312 101.398438 109.195312 C 101.738281 109.195312 102.046875 109.242188 102.320312 109.34375 C 102.59375 109.441406 102.808594 109.5625 102.96875 109.707031 C 103.128906 109.855469 103.261719 110.019531 103.367188 110.207031 C 103.476562 110.394531 103.550781 110.566406 103.589844 110.722656 C 103.628906 110.878906 103.648438 111.027344 103.648438 111.160156 C 103.648438 111.699219 103.542969 112.15625 103.335938 112.523438 C 103.125 112.894531 102.847656 113.164062 102.5 113.335938 C 102.15625 113.503906 101.761719 113.585938 101.3125 113.585938 C 100.84375 113.585938 100.4375 113.484375 100.089844 113.28125 C 99.746094 113.074219 99.496094 112.8125 99.335938 112.5 C 99.175781 112.1875 99.09375 111.84375 99.09375 111.472656 Z M 99.617188 111.171875 C 99.617188 111.332031 99.640625 111.503906 99.6875 111.6875 C 99.726562 111.871094 99.800781 112.0625 99.898438 112.261719 C 99.996094 112.457031 100.117188 112.632812 100.261719 112.789062 C 100.398438 112.945312 100.578125 113.074219 100.796875 113.175781 C 101.011719 113.277344 101.246094 113.328125 101.503906 113.328125 C 101.640625 113.328125 101.785156 113.304688 101.929688 113.265625 C 102.082031 113.222656 102.230469 113.15625 102.375 113.074219 C 102.519531 112.984375 102.652344 112.878906 102.769531 112.753906 C 102.882812 112.628906 102.976562 112.476562 103.050781 112.292969 C 103.121094 112.113281 103.160156 111.917969 103.160156 111.707031 C 103.160156 110.992188 102.972656 110.433594 102.59375 110.03125 C 102.21875 109.632812 101.75 109.433594 101.195312 109.433594 C 100.757812 109.433594 100.386719 109.578125 100.082031 109.875 C 99.773438 110.167969 99.617188 110.597656 99.617188 111.171875 Z M 111.25 109.351562 C 111.25 109.285156 111.308594 109.253906 111.421875 109.253906 L 112.414062 109.253906 C 112.503906 109.253906 112.609375 109.25 112.726562 109.246094 C 112.847656 109.238281 112.941406 109.238281 113.007812 109.238281 C 113.363281 109.238281 113.667969 109.328125 113.921875 109.507812 C 114.175781 109.6875 114.304688 109.929688 114.304688 110.234375 C 114.304688 110.441406 114.265625 110.617188 114.191406 110.769531 C 114.109375 110.921875 114.023438 111.03125 113.929688 111.097656 C 113.839844 111.167969 113.753906 111.226562 113.675781 111.273438 C 113.597656 111.324219 113.5625 111.359375 113.5625 111.375 C 113.5625 111.421875 113.726562 111.675781 114.0625 112.144531 C 114.394531 112.609375 114.621094 112.910156 114.746094 113.042969 C 114.898438 113.226562 115.078125 113.320312 115.292969 113.320312 C 115.347656 113.320312 115.375 113.34375 115.375 113.390625 C 115.375 113.449219 115.351562 113.492188 115.304688 113.511719 C 115.253906 113.53125 115.132812 113.539062 114.933594 113.539062 C 114.75 113.539062 114.578125 113.496094 114.421875 113.402344 C 114.226562 113.289062 113.890625 112.84375 113.417969 112.070312 C 113.390625 112.027344 113.371094 111.996094 113.355469 111.976562 C 113.167969 111.667969 113.019531 111.511719 112.917969 111.511719 L 112.429688 111.511719 C 112.382812 111.511719 112.351562 111.53125 112.34375 111.570312 C 112.332031 111.609375 112.328125 111.730469 112.328125 111.933594 C 112.328125 112.121094 112.328125 112.28125 112.328125 112.40625 C 112.328125 112.527344 112.328125 112.605469 112.332031 112.640625 C 112.335938 112.671875 112.335938 112.699219 112.335938 112.722656 C 112.335938 112.742188 112.335938 112.761719 112.335938 112.773438 C 112.335938 112.9375 112.371094 113.0625 112.445312 113.148438 C 112.523438 113.238281 112.609375 113.292969 112.703125 113.304688 C 112.796875 113.320312 112.878906 113.335938 112.953125 113.351562 C 113.027344 113.371094 113.066406 113.398438 113.066406 113.4375 C 113.066406 113.503906 113.03125 113.535156 112.960938 113.535156 C 112.957031 113.535156 112.816406 113.527344 112.546875 113.515625 C 112.28125 113.5 112.132812 113.492188 112.105469 113.492188 C 111.992188 113.492188 111.855469 113.496094 111.699219 113.507812 C 111.539062 113.515625 111.457031 113.519531 111.453125 113.519531 C 111.371094 113.519531 111.328125 113.484375 111.328125 113.421875 C 111.328125 113.378906 111.355469 113.347656 111.40625 113.328125 C 111.457031 113.308594 111.515625 113.296875 111.578125 113.289062 C 111.640625 113.285156 111.699219 113.242188 111.75 113.160156 C 111.804688 113.082031 111.828125 112.96875 111.828125 112.820312 C 111.828125 112.714844 111.828125 112.4375 111.828125 111.988281 C 111.832031 111.535156 111.835938 111.1875 111.835938 110.945312 C 111.835938 110.699219 111.832031 110.472656 111.828125 110.269531 C 111.828125 110.066406 111.828125 109.957031 111.828125 109.9375 C 111.828125 109.792969 111.800781 109.679688 111.742188 109.601562 C 111.679688 109.527344 111.613281 109.480469 111.539062 109.472656 C 111.46875 109.460938 111.402344 109.449219 111.339844 109.433594 C 111.28125 109.417969 111.25 109.390625 111.25 109.351562 Z M 112.328125 110.132812 L 112.328125 110.304688 C 112.328125 110.710938 112.332031 110.964844 112.335938 111.0625 C 112.339844 111.15625 112.351562 111.214844 112.375 111.230469 C 112.433594 111.269531 112.519531 111.285156 112.632812 111.285156 L 112.863281 111.285156 C 113.199219 111.285156 113.441406 111.207031 113.585938 111.050781 C 113.730469 110.898438 113.804688 110.699219 113.804688 110.457031 C 113.804688 110.210938 113.707031 109.988281 113.519531 109.785156 C 113.324219 109.582031 113.035156 109.480469 112.640625 109.480469 C 112.496094 109.480469 112.410156 109.519531 112.375 109.597656 C 112.34375 109.675781 112.328125 109.855469 112.328125 110.132812 Z M 118.5 109.332031 C 118.5 109.277344 118.558594 109.25 118.667969 109.25 C 118.683594 109.25 118.710938 109.25 118.742188 109.253906 C 118.78125 109.257812 118.808594 109.261719 118.828125 109.261719 C 118.839844 109.261719 119.027344 109.265625 119.390625 109.273438 C 119.75 109.285156 120.046875 109.292969 120.285156 109.292969 C 120.367188 109.292969 120.570312 109.289062 120.894531 109.28125 C 121.222656 109.269531 121.417969 109.265625 121.472656 109.265625 C 121.546875 109.265625 121.585938 109.3125 121.585938 109.402344 C 121.585938 109.429688 121.574219 109.507812 121.550781 109.640625 C 121.523438 109.769531 121.511719 109.894531 121.511719 110.011719 C 121.511719 110.046875 121.503906 110.078125 121.480469 110.105469 C 121.460938 110.128906 121.441406 110.144531 121.417969 110.144531 C 121.359375 110.144531 121.328125 110.101562 121.328125 110.015625 C 121.328125 109.910156 121.296875 109.8125 121.226562 109.726562 C 121.160156 109.636719 121.074219 109.59375 120.976562 109.589844 C 120.621094 109.5625 120.34375 109.546875 120.15625 109.546875 L 120.003906 109.546875 C 119.796875 109.546875 119.675781 109.5625 119.640625 109.589844 C 119.605469 109.621094 119.585938 109.726562 119.578125 109.910156 C 119.5625 110.195312 119.554688 110.527344 119.554688 110.902344 C 119.554688 111.101562 119.59375 111.203125 119.667969 111.207031 L 120.253906 111.207031 C 120.492188 111.207031 120.652344 111.199219 120.730469 111.183594 C 120.808594 111.167969 120.878906 111.136719 120.941406 111.09375 C 121.019531 111.042969 121.0625 110.96875 121.078125 110.875 C 121.089844 110.804688 121.117188 110.773438 121.164062 110.773438 C 121.199219 110.773438 121.21875 110.777344 121.226562 110.789062 C 121.234375 110.804688 121.238281 110.832031 121.238281 110.871094 C 121.238281 110.894531 121.230469 110.984375 121.214844 111.140625 C 121.199219 111.296875 121.191406 111.414062 121.191406 111.496094 C 121.191406 111.570312 121.195312 111.640625 121.203125 111.707031 C 121.207031 111.777344 121.210938 111.824219 121.210938 111.855469 C 121.210938 111.957031 121.195312 112.003906 121.167969 112.003906 C 121.109375 112.003906 121.0625 111.957031 121.035156 111.859375 C 120.980469 111.695312 120.933594 111.601562 120.886719 111.570312 C 120.804688 111.515625 120.613281 111.488281 120.316406 111.488281 C 120.199219 111.488281 120.101562 111.488281 120.027344 111.488281 C 119.953125 111.488281 119.90625 111.484375 119.882812 111.480469 C 119.863281 111.480469 119.847656 111.480469 119.832031 111.480469 C 119.820312 111.480469 119.804688 111.480469 119.792969 111.480469 C 119.628906 111.480469 119.546875 111.519531 119.546875 111.59375 C 119.546875 111.707031 119.546875 111.851562 119.542969 112.027344 C 119.539062 112.199219 119.539062 112.339844 119.539062 112.453125 L 119.539062 112.691406 C 119.539062 112.976562 119.585938 113.132812 119.679688 113.160156 C 119.777344 113.191406 119.863281 113.207031 119.933594 113.207031 C 120.230469 113.207031 120.496094 113.195312 120.722656 113.164062 C 120.945312 113.136719 121.113281 113.101562 121.222656 113.058594 C 121.335938 113.019531 121.429688 112.976562 121.507812 112.921875 C 121.585938 112.875 121.632812 112.828125 121.652344 112.789062 C 121.675781 112.746094 121.699219 112.710938 121.71875 112.683594 C 121.742188 112.65625 121.761719 112.644531 121.789062 112.644531 C 121.835938 112.644531 121.859375 112.675781 121.859375 112.746094 C 121.859375 112.914062 121.773438 113.085938 121.601562 113.257812 C 121.429688 113.433594 121.28125 113.523438 121.15625 113.523438 C 120.871094 113.523438 120.550781 113.511719 120.191406 113.492188 C 119.828125 113.472656 119.605469 113.464844 119.519531 113.464844 C 119.40625 113.464844 119.269531 113.472656 119.101562 113.488281 C 118.9375 113.507812 118.804688 113.519531 118.710938 113.519531 C 118.628906 113.519531 118.585938 113.5 118.585938 113.460938 C 118.585938 113.421875 118.585938 113.398438 118.585938 113.386719 C 118.585938 113.375 118.59375 113.367188 118.605469 113.355469 C 118.613281 113.347656 118.628906 113.34375 118.640625 113.339844 C 118.65625 113.339844 118.683594 113.332031 118.71875 113.320312 C 118.753906 113.308594 118.796875 113.292969 118.84375 113.273438 C 118.933594 113.222656 118.996094 113.128906 119.027344 112.992188 C 119.058594 112.851562 119.070312 112.5625 119.070312 112.121094 L 119.070312 111.378906 C 119.070312 111.273438 119.074219 111.105469 119.085938 110.878906 C 119.089844 110.65625 119.09375 110.480469 119.09375 110.351562 C 119.09375 110.242188 119.089844 110.0625 119.078125 109.808594 C 119.074219 109.695312 119.023438 109.605469 118.929688 109.539062 C 118.835938 109.476562 118.722656 109.445312 118.59375 109.441406 C 118.53125 109.441406 118.5 109.402344 118.5 109.332031 Z M 125.214844 111.5625 C 125.214844 111.132812 125.300781 110.742188 125.464844 110.398438 C 125.632812 110.050781 125.890625 109.773438 126.238281 109.558594 C 126.585938 109.347656 126.996094 109.242188 127.472656 109.242188 C 127.714844 109.242188 127.957031 109.277344 128.207031 109.351562 C 128.453125 109.421875 128.648438 109.492188 128.796875 109.5625 L 129.011719 109.679688 C 129.027344 109.679688 129.046875 109.667969 129.074219 109.648438 C 129.101562 109.628906 129.125 109.621094 129.140625 109.621094 C 129.160156 109.621094 129.179688 109.625 129.199219 109.640625 C 129.21875 109.65625 129.230469 109.683594 129.230469 109.714844 C 129.234375 109.828125 129.242188 109.953125 129.253906 110.078125 C 129.269531 110.210938 129.28125 110.316406 129.292969 110.398438 C 129.304688 110.480469 129.3125 110.53125 129.3125 110.546875 C 129.3125 110.617188 129.289062 110.652344 129.242188 110.652344 C 129.207031 110.652344 129.171875 110.625 129.140625 110.570312 C 128.753906 109.847656 128.199219 109.488281 127.472656 109.488281 C 126.976562 109.488281 126.570312 109.648438 126.253906 109.964844 C 125.9375 110.28125 125.777344 110.695312 125.777344 111.207031 C 125.777344 111.488281 125.8125 111.753906 125.886719 112 C 125.960938 112.246094 126.070312 112.46875 126.21875 112.671875 C 126.371094 112.878906 126.574219 113.042969 126.835938 113.160156 C 127.097656 113.28125 127.402344 113.339844 127.753906 113.339844 C 128.324219 113.339844 128.804688 113.042969 129.191406 112.449219 C 129.207031 112.417969 129.238281 112.40625 129.28125 112.40625 C 129.316406 112.40625 129.335938 112.433594 129.335938 112.484375 C 129.335938 112.53125 129.328125 112.589844 129.316406 112.664062 C 129.300781 112.738281 129.285156 112.820312 129.265625 112.90625 C 129.242188 112.996094 129.234375 113.050781 129.230469 113.074219 C 129.222656 113.113281 129.1875 113.148438 129.132812 113.179688 C 128.917969 113.28125 128.753906 113.355469 128.628906 113.410156 C 128.507812 113.460938 128.355469 113.507812 128.171875 113.546875 C 127.984375 113.589844 127.792969 113.613281 127.597656 113.613281 C 127.25 113.613281 126.9375 113.570312 126.660156 113.488281 C 126.382812 113.402344 126.15625 113.296875 125.980469 113.160156 C 125.804688 113.027344 125.65625 112.867188 125.539062 112.683594 C 125.417969 112.507812 125.335938 112.324219 125.289062 112.136719 C 125.238281 111.953125 125.214844 111.761719 125.214844 111.5625 Z M 132.851562 109.34375 C 132.851562 109.324219 132.855469 109.308594 132.859375 109.300781 C 132.863281 109.296875 132.875 109.289062 132.894531 109.28125 C 132.914062 109.269531 132.949219 109.265625 132.992188 109.265625 C 133.035156 109.265625 133.125 109.269531 133.265625 109.28125 C 133.402344 109.289062 133.539062 109.292969 133.664062 109.292969 C 133.746094 109.292969 133.816406 109.289062 133.882812 109.285156 C 133.945312 109.28125 134.058594 109.28125 134.222656 109.28125 C 134.308594 109.28125 134.347656 109.304688 134.347656 109.359375 C 134.347656 109.398438 134.335938 109.417969 134.308594 109.429688 C 134.277344 109.4375 134.242188 109.441406 134.199219 109.445312 C 134.160156 109.449219 134.121094 109.460938 134.078125 109.488281 C 134.035156 109.511719 134 109.570312 133.976562 109.664062 C 133.945312 109.753906 133.933594 109.882812 133.933594 110.039062 L 133.933594 110.207031 C 133.933594 110.394531 133.929688 110.628906 133.929688 110.914062 C 133.925781 111.195312 133.925781 111.390625 133.925781 111.496094 C 133.925781 111.617188 133.925781 111.707031 133.929688 111.769531 C 133.929688 111.835938 133.9375 111.929688 133.945312 112.046875 C 133.953125 112.167969 133.960938 112.265625 133.976562 112.335938 C 133.988281 112.40625 134.011719 112.488281 134.042969 112.59375 C 134.078125 112.695312 134.117188 112.773438 134.164062 112.835938 C 134.207031 112.894531 134.265625 112.960938 134.332031 113.03125 C 134.402344 113.101562 134.484375 113.15625 134.574219 113.191406 C 134.664062 113.230469 134.773438 113.265625 134.898438 113.289062 C 135.019531 113.316406 135.15625 113.328125 135.304688 113.328125 C 135.433594 113.328125 135.53125 113.324219 135.605469 113.320312 C 135.675781 113.316406 135.773438 113.304688 135.898438 113.28125 C 136.023438 113.261719 136.125 113.230469 136.195312 113.1875 C 136.269531 113.144531 136.351562 113.082031 136.445312 112.996094 C 136.539062 112.910156 136.613281 112.808594 136.664062 112.683594 C 136.714844 112.5625 136.761719 112.402344 136.792969 112.214844 C 136.832031 112.023438 136.851562 111.808594 136.851562 111.5625 C 136.851562 111.164062 136.847656 110.859375 136.84375 110.648438 C 136.84375 110.4375 136.839844 110.324219 136.839844 110.304688 C 136.839844 110.164062 136.839844 110.054688 136.832031 109.976562 C 136.828125 109.898438 136.808594 109.808594 136.773438 109.714844 C 136.738281 109.617188 136.691406 109.546875 136.628906 109.503906 C 136.589844 109.476562 136.539062 109.457031 136.476562 109.449219 C 136.410156 109.4375 136.359375 109.429688 136.316406 109.425781 C 136.277344 109.417969 136.257812 109.402344 136.257812 109.371094 C 136.257812 109.3125 136.296875 109.28125 136.378906 109.28125 C 136.402344 109.28125 136.480469 109.28125 136.613281 109.285156 C 136.742188 109.289062 136.816406 109.292969 136.835938 109.292969 C 136.933594 109.292969 137.035156 109.289062 137.140625 109.285156 C 137.246094 109.273438 137.316406 109.269531 137.34375 109.269531 C 137.425781 109.269531 137.464844 109.296875 137.464844 109.351562 C 137.464844 109.382812 137.421875 109.421875 137.339844 109.472656 C 137.253906 109.523438 137.203125 109.566406 137.179688 109.605469 C 137.140625 109.6875 137.117188 109.820312 137.117188 110 C 137.117188 110.027344 137.117188 110.082031 137.117188 110.167969 C 137.121094 110.253906 137.121094 110.328125 137.121094 110.398438 C 137.121094 111.160156 137.089844 111.746094 137.027344 112.148438 C 136.964844 112.550781 136.867188 112.847656 136.738281 113.035156 C 136.609375 113.21875 136.414062 113.367188 136.15625 113.476562 C 135.945312 113.5625 135.664062 113.609375 135.304688 113.609375 C 134.644531 113.609375 134.171875 113.480469 133.894531 113.226562 C 133.675781 113.023438 133.542969 112.78125 133.492188 112.492188 C 133.441406 112.210938 133.414062 111.722656 133.414062 111.027344 L 133.414062 110.929688 C 133.414062 110.773438 133.414062 110.601562 133.417969 110.414062 C 133.425781 110.226562 133.425781 110.113281 133.425781 110.070312 C 133.425781 109.851562 133.402344 109.703125 133.351562 109.621094 C 133.296875 109.539062 133.175781 109.488281 132.984375 109.457031 C 132.898438 109.445312 132.851562 109.410156 132.851562 109.34375 Z M 140.679688 109.332031 C 140.679688 109.277344 140.738281 109.25 140.851562 109.25 C 140.863281 109.25 140.890625 109.25 140.925781 109.253906 C 140.960938 109.257812 140.988281 109.261719 141.007812 109.261719 C 141.023438 109.261719 141.210938 109.265625 141.570312 109.273438 C 141.929688 109.285156 142.226562 109.292969 142.460938 109.292969 C 142.542969 109.292969 142.75 109.289062 143.078125 109.28125 C 143.40625 109.269531 143.597656 109.265625 143.652344 109.265625 C 143.730469 109.265625 143.769531 109.3125 143.769531 109.402344 C 143.769531 109.429688 143.753906 109.507812 143.730469 109.640625 C 143.707031 109.769531 143.695312 109.894531 143.695312 110.011719 C 143.695312 110.046875 143.6875 110.078125 143.664062 110.105469 C 143.644531 110.128906 143.625 110.144531 143.597656 110.144531 C 143.539062 110.144531 143.507812 110.101562 143.507812 110.015625 C 143.507812 109.910156 143.476562 109.8125 143.410156 109.726562 C 143.34375 109.636719 143.257812 109.59375 143.160156 109.589844 C 142.804688 109.5625 142.527344 109.546875 142.339844 109.546875 L 142.183594 109.546875 C 141.976562 109.546875 141.855469 109.5625 141.820312 109.589844 C 141.789062 109.621094 141.769531 109.726562 141.761719 109.910156 C 141.742188 110.195312 141.734375 110.527344 141.734375 110.902344 C 141.734375 111.101562 141.773438 111.203125 141.851562 111.207031 L 142.433594 111.207031 C 142.671875 111.207031 142.828125 111.199219 142.910156 111.183594 C 142.988281 111.167969 143.058594 111.136719 143.121094 111.09375 C 143.199219 111.042969 143.246094 110.96875 143.261719 110.875 C 143.273438 110.804688 143.300781 110.773438 143.34375 110.773438 C 143.378906 110.773438 143.402344 110.777344 143.410156 110.789062 C 143.417969 110.804688 143.417969 110.832031 143.417969 110.871094 C 143.417969 110.894531 143.414062 110.984375 143.398438 111.140625 C 143.382812 111.296875 143.371094 111.414062 143.371094 111.496094 C 143.371094 111.570312 143.375 111.640625 143.382812 111.707031 C 143.386719 111.777344 143.390625 111.824219 143.390625 111.855469 C 143.390625 111.957031 143.375 112.003906 143.351562 112.003906 C 143.292969 112.003906 143.246094 111.957031 143.21875 111.859375 C 143.164062 111.695312 143.113281 111.601562 143.070312 111.570312 C 142.984375 111.515625 142.792969 111.488281 142.496094 111.488281 C 142.378906 111.488281 142.28125 111.488281 142.207031 111.488281 C 142.136719 111.488281 142.089844 111.484375 142.066406 111.480469 C 142.042969 111.480469 142.027344 111.480469 142.011719 111.480469 C 141.996094 111.480469 141.984375 111.480469 141.972656 111.480469 C 141.8125 111.480469 141.730469 111.519531 141.730469 111.59375 C 141.730469 111.707031 141.726562 111.851562 141.722656 112.027344 C 141.71875 112.199219 141.71875 112.339844 141.71875 112.453125 L 141.71875 112.691406 C 141.71875 112.976562 141.765625 113.132812 141.863281 113.160156 C 141.960938 113.191406 142.046875 113.207031 142.117188 113.207031 C 142.414062 113.207031 142.675781 113.195312 142.902344 113.164062 C 143.125 113.136719 143.292969 113.101562 143.40625 113.058594 C 143.519531 113.019531 143.613281 112.976562 143.6875 112.921875 C 143.765625 112.875 143.8125 112.828125 143.835938 112.789062 C 143.855469 112.746094 143.878906 112.710938 143.898438 112.683594 C 143.921875 112.65625 143.945312 112.644531 143.96875 112.644531 C 144.015625 112.644531 144.039062 112.675781 144.039062 112.746094 C 144.039062 112.914062 143.957031 113.085938 143.785156 113.257812 C 143.613281 113.433594 143.464844 113.523438 143.339844 113.523438 C 143.050781 113.523438 142.730469 113.511719 142.367188 113.492188 C 142.011719 113.472656 141.789062 113.464844 141.703125 113.464844 C 141.589844 113.464844 141.453125 113.472656 141.285156 113.488281 C 141.117188 113.507812 140.984375 113.519531 140.890625 113.519531 C 140.808594 113.519531 140.765625 113.5 140.765625 113.460938 C 140.765625 113.421875 140.765625 113.398438 140.765625 113.386719 C 140.765625 113.375 140.773438 113.367188 140.78125 113.355469 C 140.792969 113.347656 140.808594 113.34375 140.820312 113.339844 C 140.835938 113.339844 140.859375 113.332031 140.898438 113.320312 C 140.9375 113.308594 140.980469 113.292969 141.019531 113.273438 C 141.117188 113.222656 141.179688 113.128906 141.207031 112.992188 C 141.238281 112.851562 141.253906 112.5625 141.253906 112.121094 L 141.253906 111.378906 C 141.253906 111.273438 141.257812 111.105469 141.261719 110.878906 C 141.269531 110.65625 141.273438 110.480469 141.273438 110.351562 C 141.273438 110.242188 141.269531 110.0625 141.257812 109.808594 C 141.257812 109.695312 141.207031 109.605469 141.109375 109.539062 C 141.015625 109.476562 140.90625 109.445312 140.777344 109.441406 C 140.714844 109.441406 140.679688 109.402344 140.679688 109.332031 Z M 147.253906 109.351562 C 147.253906 109.285156 147.3125 109.253906 147.429688 109.253906 L 148.414062 109.253906 C 148.507812 109.253906 148.609375 109.25 148.730469 109.246094 C 148.847656 109.238281 148.941406 109.238281 149.011719 109.238281 C 149.367188 109.238281 149.675781 109.328125 149.929688 109.507812 C 150.183594 109.6875 150.308594 109.929688 150.308594 110.234375 C 150.308594 110.441406 150.269531 110.617188 150.191406 110.769531 C 150.117188 110.921875 150.03125 111.03125 149.9375 111.097656 C 149.84375 111.167969 149.757812 111.226562 149.679688 111.273438 C 149.601562 111.324219 149.5625 111.359375 149.5625 111.375 C 149.5625 111.421875 149.730469 111.675781 150.066406 112.144531 C 150.398438 112.609375 150.625 112.910156 150.75 113.042969 C 150.898438 113.226562 151.082031 113.320312 151.296875 113.320312 C 151.351562 113.320312 151.378906 113.34375 151.378906 113.390625 C 151.378906 113.449219 151.355469 113.492188 151.308594 113.511719 C 151.261719 113.53125 151.140625 113.539062 150.941406 113.539062 C 150.753906 113.539062 150.582031 113.496094 150.425781 113.402344 C 150.226562 113.289062 149.894531 112.84375 149.421875 112.070312 C 149.394531 112.027344 149.375 111.996094 149.363281 111.976562 C 149.171875 111.667969 149.023438 111.511719 148.921875 111.511719 L 148.433594 111.511719 C 148.382812 111.511719 148.355469 111.53125 148.347656 111.570312 C 148.335938 111.609375 148.332031 111.730469 148.332031 111.933594 C 148.332031 112.121094 148.332031 112.28125 148.332031 112.40625 C 148.332031 112.527344 148.332031 112.605469 148.335938 112.640625 C 148.335938 112.671875 148.339844 112.699219 148.339844 112.722656 C 148.339844 112.742188 148.339844 112.761719 148.339844 112.773438 C 148.339844 112.9375 148.375 113.0625 148.449219 113.148438 C 148.527344 113.238281 148.609375 113.292969 148.703125 113.304688 C 148.796875 113.320312 148.882812 113.335938 148.957031 113.351562 C 149.03125 113.371094 149.070312 113.398438 149.070312 113.4375 C 149.070312 113.503906 149.035156 113.535156 148.964844 113.535156 C 148.957031 113.535156 148.820312 113.527344 148.550781 113.515625 C 148.28125 113.5 148.136719 113.492188 148.113281 113.492188 C 147.996094 113.492188 147.859375 113.496094 147.703125 113.507812 C 147.542969 113.515625 147.460938 113.519531 147.457031 113.519531 C 147.375 113.519531 147.332031 113.484375 147.332031 113.421875 C 147.332031 113.378906 147.355469 113.347656 147.40625 113.328125 C 147.460938 113.308594 147.519531 113.296875 147.582031 113.289062 C 147.644531 113.285156 147.703125 113.242188 147.757812 113.160156 C 147.808594 113.082031 147.832031 112.96875 147.832031 112.820312 C 147.832031 112.714844 147.832031 112.4375 147.832031 111.988281 C 147.835938 111.535156 147.835938 111.1875 147.835938 110.945312 C 147.835938 110.699219 147.835938 110.472656 147.832031 110.269531 C 147.832031 110.066406 147.832031 109.957031 147.832031 109.9375 C 147.832031 109.792969 147.804688 109.679688 147.742188 109.601562 C 147.683594 109.527344 147.617188 109.480469 147.542969 109.472656 C 147.46875 109.460938 147.402344 109.449219 147.34375 109.433594 C 147.285156 109.417969 147.253906 109.390625 147.253906 109.351562 Z M 148.332031 110.132812 L 148.332031 110.304688 C 148.332031 110.710938 148.332031 110.964844 148.339844 111.0625 C 148.34375 111.15625 148.355469 111.214844 148.382812 111.230469 C 148.441406 111.269531 148.527344 111.285156 148.636719 111.285156 L 148.867188 111.285156 C 149.203125 111.285156 149.445312 111.207031 149.589844 111.050781 C 149.738281 110.898438 149.808594 110.699219 149.808594 110.457031 C 149.808594 110.210938 149.714844 109.988281 149.519531 109.785156 C 149.328125 109.582031 149.039062 109.480469 148.648438 109.480469 C 148.503906 109.480469 148.414062 109.519531 148.382812 109.597656 C 148.347656 109.675781 148.332031 109.855469 148.332031 110.132812 Z M 154.503906 109.328125 C 154.503906 109.289062 154.523438 109.269531 154.554688 109.261719 C 154.589844 109.257812 154.675781 109.253906 154.8125 109.253906 L 155.324219 109.253906 C 155.425781 109.253906 155.609375 109.25 155.875 109.242188 C 156.140625 109.234375 156.34375 109.234375 156.484375 109.234375 C 156.761719 109.234375 157.035156 109.273438 157.3125 109.355469 C 157.582031 109.4375 157.835938 109.558594 158.0625 109.71875 C 158.296875 109.875 158.484375 110.078125 158.625 110.328125 C 158.765625 110.582031 158.835938 110.863281 158.835938 111.171875 C 158.835938 111.449219 158.820312 111.691406 158.78125 111.894531 C 158.746094 112.097656 158.683594 112.277344 158.59375 112.425781 C 158.507812 112.574219 158.417969 112.695312 158.332031 112.789062 C 158.246094 112.882812 158.128906 112.992188 157.972656 113.121094 C 157.855469 113.210938 157.683594 113.300781 157.460938 113.386719 C 157.234375 113.46875 157 113.511719 156.761719 113.511719 C 156.738281 113.511719 156.535156 113.507812 156.15625 113.496094 C 155.773438 113.484375 155.5 113.480469 155.332031 113.480469 C 155.195312 113.480469 155.066406 113.484375 154.945312 113.496094 C 154.828125 113.507812 154.757812 113.511719 154.738281 113.511719 C 154.640625 113.511719 154.59375 113.484375 154.59375 113.433594 C 154.59375 113.402344 154.601562 113.378906 154.617188 113.367188 C 154.628906 113.351562 154.660156 113.339844 154.703125 113.328125 C 154.75 113.316406 154.78125 113.304688 154.800781 113.296875 C 154.867188 113.269531 154.925781 113.21875 154.976562 113.140625 C 155.03125 113.0625 155.058594 112.984375 155.058594 112.910156 C 155.058594 112.6875 155.058594 112.402344 155.0625 112.058594 C 155.066406 111.714844 155.066406 111.460938 155.066406 111.296875 C 155.066406 111.152344 155.066406 110.929688 155.0625 110.628906 C 155.058594 110.324219 155.058594 110.042969 155.058594 109.785156 C 155.058594 109.71875 155.023438 109.648438 154.960938 109.578125 C 154.894531 109.507812 154.820312 109.472656 154.742188 109.472656 C 154.6875 109.464844 154.648438 109.460938 154.621094 109.457031 C 154.59375 109.453125 154.570312 109.441406 154.542969 109.417969 C 154.515625 109.398438 154.503906 109.367188 154.503906 109.328125 Z M 155.558594 112.65625 C 155.558594 112.730469 155.5625 112.789062 155.5625 112.839844 C 155.5625 112.886719 155.570312 112.929688 155.585938 112.96875 C 155.597656 113.011719 155.609375 113.035156 155.617188 113.050781 C 155.628906 113.066406 155.652344 113.085938 155.691406 113.105469 C 155.730469 113.125 155.761719 113.140625 155.78125 113.144531 C 155.804688 113.148438 155.851562 113.164062 155.921875 113.183594 C 155.996094 113.203125 156.054688 113.21875 156.097656 113.230469 C 156.238281 113.269531 156.382812 113.289062 156.539062 113.289062 L 156.65625 113.289062 C 156.925781 113.289062 157.15625 113.25 157.34375 113.175781 C 157.535156 113.097656 157.71875 112.976562 157.894531 112.808594 C 158.1875 112.527344 158.332031 112.070312 158.332031 111.441406 C 158.332031 111.121094 158.269531 110.835938 158.144531 110.578125 C 158.019531 110.320312 157.855469 110.113281 157.65625 109.960938 C 157.453125 109.808594 157.234375 109.6875 157 109.605469 C 156.765625 109.527344 156.527344 109.488281 156.289062 109.488281 C 156.183594 109.488281 156.105469 109.488281 156.058594 109.488281 C 156.003906 109.488281 155.949219 109.492188 155.882812 109.5 C 155.816406 109.511719 155.773438 109.519531 155.75 109.527344 C 155.730469 109.53125 155.707031 109.550781 155.675781 109.585938 C 155.640625 109.621094 155.621094 109.648438 155.613281 109.671875 C 155.609375 109.695312 155.601562 109.742188 155.59375 109.8125 C 155.582031 109.882812 155.578125 109.941406 155.578125 109.992188 C 155.578125 110.042969 155.578125 110.128906 155.578125 110.246094 C 155.578125 110.328125 155.574219 110.535156 155.570312 110.855469 C 155.566406 111.183594 155.5625 111.359375 155.5625 111.382812 C 155.5625 111.621094 155.5625 111.878906 155.5625 112.160156 C 155.5625 112.4375 155.558594 112.601562 155.558594 112.65625 Z M 162.339844 111.472656 C 162.339844 110.808594 162.542969 110.261719 162.941406 109.835938 C 163.339844 109.410156 163.90625 109.195312 164.640625 109.195312 C 164.984375 109.195312 165.292969 109.242188 165.566406 109.34375 C 165.839844 109.441406 166.054688 109.5625 166.214844 109.707031 C 166.375 109.855469 166.507812 110.019531 166.613281 110.207031 C 166.722656 110.394531 166.796875 110.566406 166.835938 110.722656 C 166.875 110.878906 166.894531 111.027344 166.894531 111.160156 C 166.894531 111.699219 166.789062 112.15625 166.578125 112.523438 C 166.367188 112.894531 166.089844 113.164062 165.746094 113.335938 C 165.40625 113.503906 165.007812 113.585938 164.5625 113.585938 C 164.085938 113.585938 163.679688 113.484375 163.335938 113.28125 C 162.992188 113.074219 162.742188 112.8125 162.578125 112.5 C 162.421875 112.1875 162.339844 111.84375 162.339844 111.472656 Z M 162.863281 111.171875 C 162.863281 111.332031 162.886719 111.503906 162.929688 111.6875 C 162.972656 111.871094 163.046875 112.0625 163.144531 112.261719 C 163.246094 112.457031 163.363281 112.632812 163.503906 112.789062 C 163.644531 112.945312 163.824219 113.074219 164.039062 113.175781 C 164.257812 113.277344 164.496094 113.328125 164.753906 113.328125 C 164.886719 113.328125 165.027344 113.304688 165.175781 113.265625 C 165.324219 113.222656 165.472656 113.15625 165.621094 113.074219 C 165.765625 112.984375 165.898438 112.878906 166.011719 112.753906 C 166.128906 112.628906 166.222656 112.476562 166.296875 112.292969 C 166.371094 112.113281 166.40625 111.917969 166.40625 111.707031 C 166.40625 110.992188 166.21875 110.433594 165.839844 110.03125 C 165.464844 109.632812 164.996094 109.433594 164.441406 109.433594 C 164.003906 109.433594 163.632812 109.578125 163.324219 109.875 C 163.015625 110.167969 162.863281 110.597656 162.863281 111.171875 Z M 170.484375 112.378906 C 170.484375 112.296875 170.511719 112.257812 170.566406 112.257812 C 170.617188 112.257812 170.652344 112.277344 170.664062 112.316406 C 170.703125 112.410156 170.738281 112.492188 170.773438 112.5625 C 170.808594 112.628906 170.863281 112.714844 170.933594 112.816406 C 171.011719 112.917969 171.09375 113.003906 171.183594 113.066406 C 171.265625 113.132812 171.378906 113.191406 171.519531 113.238281 C 171.652344 113.285156 171.800781 113.308594 171.964844 113.308594 C 172.261719 113.308594 172.5 113.230469 172.683594 113.074219 C 172.863281 112.917969 172.953125 112.710938 172.953125 112.457031 C 172.953125 112.273438 172.890625 112.117188 172.769531 111.988281 C 172.644531 111.863281 172.503906 111.773438 172.347656 111.71875 C 172.1875 111.667969 171.988281 111.597656 171.742188 111.507812 C 171.5 111.417969 171.300781 111.328125 171.144531 111.234375 C 170.785156 111.023438 170.601562 110.730469 170.601562 110.363281 C 170.601562 110.007812 170.730469 109.726562 170.984375 109.511719 C 171.242188 109.300781 171.574219 109.195312 171.984375 109.195312 C 172.136719 109.195312 172.3125 109.226562 172.519531 109.292969 C 172.730469 109.359375 172.835938 109.390625 172.839844 109.390625 C 172.851562 109.390625 172.875 109.382812 172.90625 109.367188 C 172.9375 109.351562 172.960938 109.34375 172.976562 109.34375 C 173.03125 109.34375 173.058594 109.359375 173.066406 109.390625 C 173.152344 109.871094 173.191406 110.144531 173.191406 110.203125 C 173.191406 110.3125 173.164062 110.367188 173.109375 110.367188 C 173.074219 110.367188 173.046875 110.339844 173.027344 110.28125 C 172.980469 110.167969 172.933594 110.078125 172.886719 110.007812 C 172.839844 109.933594 172.808594 109.886719 172.789062 109.867188 C 172.769531 109.847656 172.714844 109.800781 172.632812 109.726562 C 172.417969 109.535156 172.160156 109.441406 171.855469 109.441406 C 171.605469 109.441406 171.398438 109.5 171.234375 109.621094 C 171.066406 109.738281 170.980469 109.898438 170.980469 110.101562 C 170.980469 110.277344 171.03125 110.425781 171.128906 110.542969 C 171.226562 110.65625 171.355469 110.746094 171.519531 110.808594 C 171.683594 110.871094 171.855469 110.933594 172.03125 110.988281 C 172.210938 111.042969 172.398438 111.121094 172.597656 111.21875 C 172.800781 111.316406 172.964844 111.4375 173.09375 111.574219 C 173.253906 111.746094 173.332031 111.957031 173.332031 112.214844 C 173.332031 112.628906 173.203125 112.960938 172.9375 113.203125 C 172.671875 113.449219 172.339844 113.570312 171.945312 113.570312 C 171.675781 113.570312 171.457031 113.554688 171.289062 113.527344 C 171.121094 113.496094 170.949219 113.433594 170.773438 113.34375 C 170.722656 113.3125 170.660156 113.160156 170.589844 112.882812 C 170.519531 112.601562 170.484375 112.4375 170.484375 112.378906 Z M 170.484375 112.378906 "/>
</g>
</svg>
